<?xml version="1.0" encoding="UTF-8" standalone="no"?>
<svg
   version="1.1"
   width="1024"
   height="1320"
   id="svg58"
   sodipodi:docname="pmu0.svg"
   xml:space="preserve"
   inkscape:version="1.4.2 (ebf0e940d0, 2025-05-08)"
   xmlns:inkscape="http://www.inkscape.org/namespaces/inkscape"
   xmlns:sodipodi="http://sodipodi.sourceforge.net/DTD/sodipodi-0.dtd"
   xmlns="http://www.w3.org/2000/svg"
   xmlns:svg="http://www.w3.org/2000/svg"><defs
     id="defs58" /><sodipodi:namedview
     id="namedview58"
     pagecolor="#ffffff"
     bordercolor="#000000"
     borderopacity="0.25"
     inkscape:showpageshadow="2"
     inkscape:pageopacity="0.0"
     inkscape:pagecheckerboard="0"
     inkscape:deskcolor="#d1d1d1"
     inkscape:zoom="0.51049829"
     inkscape:cx="457.39624"
     inkscape:cy="936.34006"
     inkscape:window-width="1366"
     inkscape:window-height="736"
     inkscape:window-x="0"
     inkscape:window-y="0"
     inkscape:window-maximized="1"
     inkscape:current-layer="svg58" /><path
     d="M 0,0 H 1024 V 1320 H 0 Z"
     fill="#fdfdfd"
     id="path1"
     style="stroke-width:4" /><path
     d="m 212,0 h 812 v 808 h -16 v -4 h -4 v -28 h 4 v -20 h -4 v -24 h 4 v -20 h -4 v -4 h -20 v 4 h -24 v -4 h -4 V 668 H 860 V 624 H 748 v 48 h -4 v 4 h -4 v 4 h -4 v 36 h 4 v 4 h 4 v 4 h 4 v 36 H 604 v -28 h 16 V 576 h -40 v -48 h 44 v -4 h 16 v -4 h 16 v -4 h 12 v -4 h 16 v -4 h 12 v -4 h 12 v -4 h 12 v -12 h -12 v 4 h -16 v 4 h -16 v 4 h -12 v 4 h -16 v 4 h -12 v 4 h -16 v 4 h -44 v -16 h 56 v -4 h 8 v -4 h 20 v -4 h 8 v -4 h 16 v -4 h 16 v -4 h 12 v -4 h 8 v -12 h -12 v 4 h -16 v 4 h -12 v 4 h -16 v 4 h -16 v 4 h -8 v 4 h -16 v 4 h -8 v -36 h 8 V 208 H 580 V 24 H 212 Z"
     fill="#000000"
     id="path2"
     style="stroke-width:4" /><path
     d="m 0,884 h 52 v 84 h 4 v 32 h -4 v 12 h 252 v -8 h 164 v 4 h 4 v 4 h 40 v 12 h -4 v 4 h -4 v 20 h 4 v 8 h 4 v 16 h 12 v -16 h 4 v -32 h -4 v -12 h 8 v -4 h 4 v -16 h -4 v -4 h -24 v 4 H 296 v -44 h 292 v -12 h 20 v 24 h 4 v 4 h 4 v 12 h -4 v 8 h -4 v 8 h -48 v 20 h 8 v 12 h -4 v 32 h 4 v 16 h 12 v -12 h 4 v -8 h 4 v -24 h -4 v -4 h -4 v -12 h 44 v -24 h 4 v -8 h 4 v -20 h 128 v 112 h 40 v 248 H 0 Z"
     fill="#000000"
     id="path3"
     style="stroke-width:4" /><path
     d="m 484,172 h 80 v 4 h 4 v 32 h -8 v 4 h -12 v 8 h 4 v 4 h 8 v 52 h 12 v 8 h -12 v 84 h 4 v 4 h 8 v -68 h 40 V 436 H 508 v 16 h 56 v 16 h -48 v 12 h 4 v 24 h -4 v 36 h 4 v 56 h -36 v 28 h -12 v 148 h 64 v -4 h 4 v -4 h 20 v 8 h 200 v -60 h -4 v -4 h -4 v -4 h -4 v -12 h 4 v -4 h 4 v -4 h 4 v -48 h 88 v 216 h -4 v 16 h 4 v 36 h -16 v 8 H 620 V 820 H 304 v -4 h -4 V 624 h -4 v -36 h 4 V 312 h 24 v 4 h 12 v 8 h 4 v 4 h 8 v -16 h 36 v 36 h -36 v 12 h 36 v 36 h -36 v -4 h -12 v 16 h 48 v 40 h 32 v -8 h -4 v -4 H 396 V 312 h 28 v 4 h 24 v -4 h 24 v 144 h 16 v -4 h 8 v -4 h 4 v -8 h -4 v -4 h -8 v -28 h 8 v -4 h 4 v -8 h -12 v -84 h 4 v -12 h -4 v -4 h -88 v -28 h 88 v -4 h 4 v -8 h -4 v -32 h 32 v 40 h 4 v 132 h -16 v 12 h 16 v 4 h 12 V 284 h -4 v -4 h 4 v -28 h -4 v -28 h 8 v -12 h -52 v -8 h -4 z"
     fill="#000000"
     id="path4"
     style="stroke-width:4" /><path
     d="m 164,8 h 32 v 64 h -12 v 8 h 4 v 4 h 8 v 32 h -4 v 12 h 4 v 12 h 12 V 36 h 124 v 104 h 12 V 36 h 220 v 12 h -24 v 24 h -20 v 44 h 4 v 4 h 16 v -4 h 4 v -8 h -8 v -4 h -4 V 84 h 28 v 20 h -4 v 4 h -4 v 12 h 16 v 40 h -4 v 4 H 344 v -12 h -12 v 40 h 12 v -20 h 128 v 32 H 208 v -52 h -12 v 172 h 12 v -80 h 76 v 124 h -76 v -36 h -12 v 60 h 12 v -12 h 76 v 196 h -28 v -92 h -40 v 4 h -4 v 88 h -4 V 476 h -4 v -4 h -8 v 132 h 12 v -16 h 72 v 36 h -72 v -12 h -12 v 88 h 8 v -4 h 4 v -16 h 76 v 68 h -76 v -8 h -12 v 68 H 64 v -16 h 96 V 444 H 52 v -12 h 4 v -16 h 20 v 16 h 40 v 8 h 24 v -12 h 8 v 4 h 12 v -4 h 4 v -8 h -4 v -52 h -36 v -4 H 64 v 28 h 4 v 4 h 20 v -12 h -8 v -12 h 32 v 12 h 12 v -4 h 28 v 12 h -28 v -4 h -12 v 16 H 52 v -20 h 4 v -20 h -4 v -8 h 104 v -4 h 4 v -16 h -12 v 12 H 64 v -8 h 76 v -16 h 24 v -80 h -12 v 8 h -20 v -8 h -8 v 4 H 96 v -24 h 28 v 12 h 8 v -8 h 4 v -4 h 16 v 8 h 12 v -80 h -12 v 12 H 68 V 128 H 88 V 116 H 68 v -8 H 64 V 48 h 4 v -4 h 4 v -8 h 40 v 80 h -12 v 4 h -4 v 8 h 8 v 4 h 8 v -4 h 36 v 4 h 4 v 8 h 12 v -36 h -4 v -4 h -8 v 16 H 124 V 88 h 28 v -8 h 4 v 4 h 16 V 72 h -8 z"
     fill="#000000"
     id="path5"
     style="stroke-width:4" /><path
     d="m 860,684 h 84 v 40 h 44 v 136 h 4 v 76 h -32 v 8 h 32 v 20 h 12 v 340 H 812 v -300 h 48 v -4 h 4 V 852 h -4 z"
     fill="#262626"
     id="path6"
     style="stroke-width:4" /><path
     d="m 164,816 h 32 v 12 h 128 v 52 h 208 v -8 h -4 v -44 h 40 v 4 h 4 v 36 h -4 v 4 h -12 v 8 h 52 v 40 h 204 v 4 H 600 v 4 h -4 v -4 h -8 v -36 h -84 v 12 h 8 v 40 h -32 v -40 h 20 V 888 H 316 v -48 h -72 v 24 h 32 v 16 h 4 v 52 h -4 v 12 h -4 v 12 h 4 v 4 h 8 v 40 H 72 v -4 h -4 v -52 h -4 v -76 h 8 v -4 h 128 v 8 h 8 v -4 h 4 v -16 h 12 v 12 h 12 v -4 h 4 v -8 h -4 v -12 h -36 v 4 h -4 v 8 H 164 V 832 H 96 v -4 H 60 v 16 h 92 v 8 H 52 v -32 h 100 v 8 h 12 z"
     fill="#262626"
     id="path7"
     style="stroke-width:4" /><path
     d="M 0,0 H 148 V 24 H 56 v 8 h -4 v 88 h 4 v 180 h -4 v 36 H 40 v 4 h -4 v 44 h 4 v 32 h -4 v 44 h 20 v 36 H 0 Z"
     fill="#000000"
     id="path8"
     style="stroke-width:4" /><path
     d="M 8,504 H 56 V 812 H 8 V 672 h 8 v -4 h 4 v -8 h -4 v -4 H 4 v -4 h 4 z"
     fill="#000000"
     id="path9"
     style="stroke-width:4" /><path
     d="m 580,588 h 32 v 132 h -92 v 36 h -16 v -84 h 60 v -48 h -28 v -4 h -4 v -28 h 48 z"
     fill="#000000"
     id="path10"
     style="stroke-width:4" /><path
     d="m 88,456 h 60 V 576 H 64 v -32 h 8 v -68 h -4 v -4 h 8 v 4 h 8 v -4 h 4 z"
     fill="#000000"
     id="path11"
     style="stroke-width:4" /><path
     d="m 72,680 h 76 v 96 H 88 V 716 H 72 Z"
     fill="#000000"
     id="path12"
     style="stroke-width:4" /><path
     d="m 300,220 h 24 v 4 h 24 v -4 h 36 v 36 h -16 v 12 h 16 v 28 h -84 z"
     fill="#000000"
     id="path13"
     style="stroke-width:4" /><path
     d="m 68,172 h 84 v 40 H 84 v 48 h 32 v 16 H 84 v 24 H 68 Z"
     fill="#000000"
     id="path14"
     style="stroke-width:4" /><path
     d="m 208,760 h 76 v 60 h -76 z"
     fill="#000000"
     id="path15"
     style="stroke-width:4" /><path
     d="m 380,484 h 60 v 60 h -60 z"
     fill="#fefefe"
     id="path16"
     style="stroke-width:4" /><path
     d="m 384,576 h 56 v 48 h 12 v 12 h -68 z"
     fill="#fefefe"
     id="path17"
     style="stroke-width:4" /><path
     d="m 1004,840 h 20 v 480 h -4 V 952 h -12 v -16 h -4 v -16 h 4 v -28 h -4 v -20 h 4 v -24 h -4 z"
     fill="#000000"
     id="path18"
     style="stroke-width:4" /><path
     d="m 96,632 h 4 v 4 h 48 v 36 H 72 v -36 h 24 z"
     fill="#000000"
     id="path19"
     style="stroke-width:4" /><path
     d="m 72,588 h 76 v 28 h 4 v 4 h -4 v 4 H 72 Z"
     fill="#000000"
     id="path20"
     style="stroke-width:4" /><path
     d="m 208,636 h 72 v 4 h 4 v 32 h -76 v -20 h -4 v -4 h 4 z"
     fill="#000000"
     id="path21"
     style="stroke-width:4" /><path
     d="m 532,480 h 32 v 96 h -32 v -36 h 12 v -4 h 4 v -32 h -16 z"
     fill="#000000"
     id="path22"
     style="stroke-width:4" /><path
     d="m 400,220 h 72 v 36 h -24 v -4 h -24 v 4 h -24 z"
     fill="#000000"
     id="path23"
     style="stroke-width:4" /><path
     d="m 620,936 h 192 v 12 H 624 v -4 h -4 z"
     fill="#262626"
     id="path24"
     style="stroke-width:4" /><path
     d="m 220,496 h 24 v 80 h -24 z"
     fill="#000000"
     id="path25"
     style="stroke-width:4" /><path
     d="m 92,284 h 60 v 32 H 92 Z"
     fill="#262626"
     id="path26"
     style="stroke-width:4" /><path
     d="m 824,920 h 8 v 40 h 8 v 16 h 12 v 20 h -40 v -20 h -24 v -16 h 40 v -12 h -4 z"
     fill="#262626"
     id="path27"
     style="stroke-width:4" /><path
     d="m 336,828 h 40 v 4 h 4 v 36 h -4 v 4 h -40 z"
     fill="#262626"
     id="path28"
     style="stroke-width:4" /><path
     d="m 0,820 h 36 v 44 h 4 v 4 H 0 Z"
     fill="#000000"
     id="path29"
     style="stroke-width:4" /><path
     d="m 772,960 h 4 v 48 h 28 v 48 h -32 z"
     fill="#000000"
     id="path30"
     style="stroke-width:4" /><path
     d="m 388,832 h 40 v 40 h -40 z"
     fill="#262626"
     id="path31"
     style="stroke-width:4" /><path
     d="m 412,896 h 4 v 4 h 12 v 40 h -36 v -40 h 20 z"
     fill="#262626"
     id="path32"
     style="stroke-width:4" /><path
     d="m 364,896 h 4 v 4 h 12 v 40 h -36 v -40 h 20 z"
     fill="#262626"
     id="path33"
     style="stroke-width:4" /><path
     d="m 484,828 h 32 v 44 h -32 z"
     fill="#262626"
     id="path34"
     style="stroke-width:4" /><path
     d="m 440,900 h 32 v 40 h -32 z"
     fill="#262626"
     id="path35"
     style="stroke-width:4" /><path
     d="m 440,832 h 32 v 40 h -32 z"
     fill="#262626"
     id="path36"
     style="stroke-width:4" /><path
     d="m 532,632 h 20 v 28 h -48 v -16 h -4 v -8 h 32 z"
     fill="#000000"
     id="path37"
     style="stroke-width:4" /><path
     d="m 572,244 h 40 v 32 h -12 v -4 h -8 v 4 h -20 z"
     fill="#000000"
     id="path38"
     style="stroke-width:4" /><path
     d="m 396,588 h 32 v 36 h -32 z"
     fill="#000000"
     id="path39"
     style="stroke-width:4" /><path
     d="m 580,832 h 28 v 40 h -28 z"
     fill="#262626"
     id="path40"
     style="stroke-width:4" /><path
     d="m 288,852 h 16 v 88 h -12 v -84 h -4 z"
     fill="#262626"
     id="path41"
     style="stroke-width:4" /><path
     d="m 412,496 h 4 v 4 h 8 v 32 h -32 v -32 h 20 z"
     fill="#000000"
     id="path42"
     style="stroke-width:4" /><path
     d="m 580,452 h 24 v 40 h -24 z"
     fill="#000000"
     id="path43"
     style="stroke-width:4" /><path
     d="m 208,216 h 56 v 16 h -56 z"
     fill="#000000"
     id="path44"
     style="stroke-width:4" /><path
     d="m 532,896 h 4 v 4 h 8 v 40 h -20 v -40 h 8 z"
     fill="#262626"
     id="path45"
     style="stroke-width:4" /><path
     d="m 556,900 h 20 v 40 h -20 z"
     fill="#262626"
     id="path46"
     style="stroke-width:4" /><path
     d="m 64,312 h 20 v 12 h 44 v 8 H 64 Z"
     fill="#000000"
     id="path47"
     style="stroke-width:4" /><path
     d="m 196,404 h 12 v 60 h -12 z"
     fill="#fefefe"
     id="path48"
     style="stroke-width:4" /><path
     d="m 580,220 h 32 v 16 h -44 v -12 h 12 z"
     fill="#000000"
     id="path49"
     style="stroke-width:4" /><path
     d="m 316,900 h 16 v 40 h -16 z"
     fill="#262626"
     id="path50"
     style="stroke-width:4" /><path
     d="m 532,732 h 32 v 20 h -32 z"
     fill="#000000"
     id="path51"
     style="stroke-width:4" /><path
     d="m 124,36 h 16 v 40 h -16 z"
     fill="#000000"
     id="path52"
     style="stroke-width:4" /><path
     d="m 560,380 h 12 v 52 h -12 z"
     fill="#ffffff"
     id="path53"
     style="stroke-width:4" /><path
     d="m 992,968 h 8 v 28 h -40 v -12 h 32 z"
     fill="#ffffff"
     id="path54"
     style="stroke-width:4" /><path
     d="m 496,604 h 24 v 20 h -24 v -4 h -4 v -8 h 4 z"
     fill="#000000"
     id="path55"
     style="stroke-width:4" /><path
     d="m 580,732 h 12 v 28 h -12 z"
     fill="#000000"
     id="path56"
     style="stroke-width:4" /><path
     d="m 124,404 h 28 v 12 h -12 v -4 h -16 z"
     fill="#000000"
     id="path57"
     style="stroke-width:4" /><path
     d="m 548,60 h 16 v 8 h -4 v 4 h -12 z"
     fill="#000000"
     id="path58"
     style="stroke-width:4" /></svg>
