<?xml version="1.0" encoding="UTF-8" standalone="no"?>
<svg
   version="1.1"
   width="1024"
   height="1220"
   id="svg60"
   sodipodi:docname="pmu2.svg"
   inkscape:version="1.4.2 (ebf0e940d0, 2025-05-08)"
   xmlns:inkscape="http://www.inkscape.org/namespaces/inkscape"
   xmlns:sodipodi="http://sodipodi.sourceforge.net/DTD/sodipodi-0.dtd"
   xmlns="http://www.w3.org/2000/svg"
   xmlns:svg="http://www.w3.org/2000/svg">
  <defs
     id="defs60" />
  <sodipodi:namedview
     id="namedview60"
     pagecolor="#ffffff"
     bordercolor="#000000"
     borderopacity="0.25"
     inkscape:showpageshadow="2"
     inkscape:pageopacity="0.0"
     inkscape:pagecheckerboard="0"
     inkscape:deskcolor="#d1d1d1"
     inkscape:zoom="1.7377049"
     inkscape:cx="128.04245"
     inkscape:cy="152.5"
     inkscape:window-width="1366"
     inkscape:window-height="736"
     inkscape:window-x="0"
     inkscape:window-y="0"
     inkscape:window-maximized="1"
     inkscape:current-layer="svg60" />
  <path
     d="M 0,0 H 1024 V 1220 H 0 Z"
     fill="#fbfbfb"
     id="path1"
     style="stroke-width:4" />
  <path
     d="m 0,0 h 696 v 104 h 48 v 8 h -8 v 12 h 104 v 316 h -64 v 24 h -32 v 244 h -4 v -4 h -4 v -8 h -8 v -8 h -8 v -8 h -8 v -72 h -8 v -8 h -4 v -4 h -4 v -4 h 4 v -4 h 4 v -4 h 4 v -4 h 4 v -4 h 4 v -4 h 4 v -4 h 4 v -4 h 4 v -4 h 4 v -4 h 4 v -4 h 4 v -16 h -4 v -8 h -8 v -4 h -4 v -4 h -4 v -4 h -4 v -4 h -4 v -4 h -4 v -4 h -4 v -60 h 52 v -8 h -60 v 76 h -4 v -4 h -12 v 8 h 4 v 4 h 4 v 4 h 4 v 4 h 4 v 4 h 4 v 4 h 4 v 4 h 4 v 8 h -4 v 4 h -4 v 4 h -4 v 4 h -4 v 4 h -4 v 4 h -4 v 4 h -4 v 4 h -4 v 4 h -4 v 4 h -4 v 4 h -4 v 4 h -4 v 4 h -4 v 4 h -4 v 4 h -4 v 4 h -4 v 80 h 4 v 4 h 4 v 4 h 4 v 4 h 4 v 4 h 4 v 4 h 4 v 4 h 4 v 44 h -4 v 4 h -4 v 4 h -4 v 4 h -4 v 4 h -4 v 4 h -4 v 4 h -4 v 4 h -4 v 52 h 4 v 8 h 8 v 8 h 8 v 8 h 4 v 8 h -4 v 8 h -8 v 8 h -8 v 8 h -8 v 4 h -4 v 12 h 8 v -4 h 4 v -4 h 4 v -4 h 8 v 4 h -4 v 4 h -4 v 4 h -4 v 4 h -4 v 8 h 12 v -4 h 4 v -4 h 4 v -4 h 4 v -4 h 4 v -4 h 4 v -4 h 4 v -4 h 4 v -4 h 4 v -4 h 4 v -4 h 4 v -4 h 4 v -4 h 4 v -4 h 4 v -4 h 4 v -4 h 4 v -4 h 4 v -4 h 4 v -4 h 4 v -4 h 4 v -4 h 4 v -4 h 4 v -4 h 4 v -4 h 4 v 12 h -4 v 4 h -4 v 36 h 4 v 4 h 4 v 40 H 568 v -4 h -8 v -4 h -32 v 4 h -8 v 4 h -36 v -32 h 4 v -4 h 4 v -4 h 4 v -36 h -4 v -4 h -4 v -4 h -4 v -40 h 48 v -12 h -4 v -36 h 48 v -16 h -4 v -24 h 4 v -20 h -4 v -32 h 4 v -20 h -4 v -28 h 48 V 364 h -44 v -32 h 4 V 228 h -4 V 176 H 204 v -52 h -4 v -4 h -16 v 4 h -4 v 8 h -16 v -12 h -20 v 60 H 48 v 8 h -4 v 64 h -4 v 28 h 8 v 88 h -8 v 20 h 4 v 20 h -4 v 16 h 4 v 32 h -4 v 44 h -8 v 24 H 0 Z"
     fill="#000000"
     id="path2"
     style="stroke-width:4" />
  <path
     d="m 156,140 h 28 v 12 h -4 v 8 h 8 v 68 h -8 v 8 h 8 v 16 h 8 v 68 h -8 v 200 h 88 v 8 h 8 v 64 h -4 v 8 h -92 v 368 h -4 v 16 h 40 v -4 h 4 v 4 h 4 v 4 h 20 v -4 h 20 v 4 h 28 v -4 h 24 v 4 h 16 v -4 h 36 v 4 h 12 V 868 h -4 V 748 h 36 v 240 h 88 v -52 h 24 v -4 h 4 v -4 h 16 v 4 h 4 v 4 h 24 v 52 h 40 v -8 h 28 v 8 H 760 V 876 h -4 v -4 h -4 v -4 h -4 v -16 h 8 v -8 h 4 v -44 h 140 v 32 h -12 v 120 h 4 v 4 h -4 v 32 h 16 v -4 h 84 v 12 h 4 v 8 h -4 v 16 h -64 v -16 h -12 v 16 h -32 v 4 h -8 v -4 h -36 v -36 h 28 V 832 h -76 v 188 h -28 v -4 h -16 v 4 h -12 v 4 h -4 v -4 h -16 v -4 h -12 v 4 h -12 v 4 h -8 v -4 h -60 v -4 h -24 v 12 h -12 v -12 h -20 v 12 h -40 v -12 h -24 v 12 h -12 v -16 h -20 v 4 h -4 v 8 h -24 v -4 h -4 v -4 h -16 v 4 h -4 v 4 h -28 v -8 h -16 v 8 h -28 v -8 h -20 v 8 h -76 v -8 h -16 v 8 h -32 v -8 h -12 v 8 h -32 v -8 h -4 v -12 h -12 v 8 h 4 v 4 H 44 V 980 H 176 V 616 h -20 v -8 h -4 v -4 h 4 V 456 h -16 v 4 h -8 v -12 h 20 v -12 h -28 v 24 h -8 v 4 h -8 V 452 H 96 v 8 H 64 v -36 h 52 v 4 h 16 v -4 h 12 v 4 h 8 v -4 h 4 v -12 h -4 v -32 h 4 v -16 h -16 v 12 h -12 v -52 h 4 v -80 h 8 v 8 h 12 v -16 h 12 v -8 h -8 v -68 h 8 v -12 h -8 z"
     fill="#262626"
     id="path3"
     style="stroke-width:4" />
  <path
     d="m 1016,460 h 8 v 760 H 584 v -28 h -4 v -12 h 4 v -4 h 36 v -20 h 8 v -32 h 220 v 20 h 112 v -12 h 36 v -8 h 12 v -16 h -4 v -24 h 4 v -24 h -4 v -20 h 4 v -28 h -8 v -20 h 8 V 872 h -48 v -40 h -44 v -40 h 28 v -20 h 64 V 620 H 912 V 480 h 96 v -12 h 8 z"
     fill="#000000"
     id="path4"
     style="stroke-width:4" />
  <path
     d="m 712,0 h 136 v 72 h 8 v -4 h 12 v 4 h 64 v 16 h -4 v 12 h 36 v 16 h -40 v 12 h 68 v 304 h 8 v 4 h 4 v 4 h 4 v 8 h -4 v 8 h -8 v 12 h -36 v -4 h -60 v -16 h -28 v -8 H 852 V 112 H 756 V 88 h -12 v 4 h -32 z"
     fill="#000000"
     id="path5"
     style="stroke-width:4" />
  <path
     d="m 340,376 h 80 v 4 h 48 V 740 H 296 V 380 h 44 z"
     fill="#262626"
     id="path6"
     style="stroke-width:4" />
  <path
     d="m 788,452 h 108 v 28 h 4 v 160 h 36 v -4 h 60 v 128 h -56 v 24 h -80 v -28 h -64 v 28 H 756 V 476 h 32 z"
     fill="#262626"
     id="path7"
     style="stroke-width:4" />
  <path
     d="m 204,196 h 352 v 8 h 8 v 12 h -8 v 24 h 8 v 80 h -8 v 40 H 420 v 4 h -80 v -4 H 204 Z"
     fill="#262626"
     id="path8"
     style="stroke-width:4" />
  <path
     d="m 0,1032 h 40 v 92 h 148 v 20 h 88 v 28 h 188 v 8 h 40 v 4 h 4 v 8 h -4 v 28 H 0 Z"
     fill="#000000"
     id="path9"
     style="stroke-width:4" />
  <path
     d="m 488,368 h 64 v 12 h 56 V 596 H 508 v 16 h 52 v 16 h -44 v 48 h 8 v -36 h 36 v 100 h -44 v 48 h -60 v 8 h 12 v 48 h 4 v 8 h 8 v 4 h 4 v 16 h -4 v 4 h -4 v 4 h -4 v 4 h -4 v 40 h -32 v -12 h -8 v -12 h 8 v -32 h -8 v -8 h 8 v -40 h -8 v -12 h 4 v -8 h 16 v -12 h -16 v -20 h -4 v -20 h 40 v 12 h 12 v -24 h 4 v -28 h -4 v -8 h 4 v -28 h -4 v -8 h 20 v -32 h -8 v 20 h -12 v -28 h 4 v -12 h 16 v -16 h -16 v -8 h -8 v -20 h 12 v -4 h 24 v 4 h 16 V 412 h -44 v -32 h 4 z"
     fill="#000000"
     id="path10"
     style="stroke-width:4" />
  <path
     d="m 196,844 h 180 v 132 h -36 v -4 h -68 v 4 h -24 v -4 h -16 v 4 h -28 v -8 h -8 z"
     fill="#262626"
     id="path11"
     style="stroke-width:4" />
  <path
     d="m 276,1032 h 192 v 100 h -4 v 24 h -28 v -4 h -16 v 4 h -32 v -4 h -16 v 4 h -28 v -4 h -16 v 4 h -40 v -36 h -12 z"
     fill="#262626"
     id="path12"
     style="stroke-width:4" />
  <path
     d="m 856,0 h 168 v 432 h -4 v -4 h -4 v -4 h -4 v -4 h -4 V 116 H 976 V 88 H 944 V 56 h -64 v -4 h -24 z"
     fill="#000000"
     id="path13"
     style="stroke-width:4" />
  <path
     d="m 56,1032 h 212 v 88 h -4 v 8 h -56 v -16 h -4 v -4 h -20 v 4 h -28 v -4 h -16 v 4 h -32 v -4 H 92 v 4 h -4 v 4 H 64 v -8 h -8 v -20 h -4 v -36 h 4 z"
     fill="#262626"
     id="path14"
     style="stroke-width:4" />
  <path
     d="m 848,0 h 8 v 52 h 24 v 4 h 64 v 32 h 32 v 28 h 32 v 304 h 4 v 4 h 4 v 4 h 4 v 4 h 4 v 28 h -8 v 8 h -8 v 12 h -96 v 140 h 96 v 152 h -64 v 20 h -28 v -4 h 24 v -24 h 56 V 636 h -60 v 4 H 900 V 480 h -4 v -32 h 4 v 16 h 60 v 4 h 36 v -12 h 8 v -8 h 4 v -8 h -4 v -4 h -4 v -4 h -8 V 128 h -68 v -12 h 40 V 100 H 928 V 88 h 4 V 72 h -64 v -4 h -12 v 4 h -8 z"
     fill="#ffffff"
     id="path15"
     style="stroke-width:4" />
  <path
     d="m 20,592 h 4 v 4 h 4 v 24 h 16 v 76 h -4 v 8 h -8 v 36 h 4 v 4 h 4 v 4 h 4 V 968 H 32 v 8 H 0 V 596 h 20 z"
     fill="#000000"
     id="path16"
     style="stroke-width:4" />
  <path
     d="m 484,1032 h 124 v 96 h 4 v 4 h 4 v 16 h -4 v 4 h -12 v 4 H 484 Z"
     fill="#262626"
     id="path17"
     style="stroke-width:4" />
  <path
     d="m 60,792 h 20 v 20 h 40 v -4 h 28 V 972 H 60 Z"
     fill="#262626"
     id="path18"
     style="stroke-width:4" />
  <path
     d="m 624,1032 h 168 v 20 h -4 v 16 h 4 v 12 h -4 v 8 h 4 v 24 H 612 v -72 h 12 z"
     fill="#262626"
     id="path19"
     style="stroke-width:4" />
  <path
     d="m 856,1032 h 136 v 76 h -4 v 8 h -24 v -4 h -4 v -4 h -16 v 20 h -84 v -40 h 4 v -16 h -4 v -4 h 4 v -12 h -8 z"
     fill="#262626"
     id="path20"
     style="stroke-width:4" />
  <path
     d="m 200,704 h 64 v 44 h 24 v 88 h -92 v -88 h 4 z"
     fill="#262626"
     id="path21"
     style="stroke-width:4" />
  <path
     d="m 900,844 h 44 v 44 h 48 v 88 h -88 v -12 h -4 z"
     fill="#262626"
     id="path22"
     style="stroke-width:4" />
  <path
     d="m 60,700 h 88 V 804 H 88 V 784 H 60 v -44 h -4 v -4 h -4 v -4 h -4 v -24 h 12 z"
     fill="#262626"
     id="path23"
     style="stroke-width:4" />
  <path
     d="m 64,196 h 24 v 48 h 36 v 64 h -4 v 60 H 64 V 248 h -4 v -32 h 4 z"
     fill="#000000"
     id="path24"
     style="stroke-width:4" />
  <path
     d="m 76,516 h 44 v 4 h 28 v 80 H 48 v -20 h -4 v -44 h 4 v -16 h 28 z"
     fill="#262626"
     id="path25"
     style="stroke-width:4" />
  <path
     d="m 296,748 h 80 v 92 h -80 z"
     fill="#262626"
     id="path26"
     style="stroke-width:4" />
  <path
     d="m 60,620 h 88 v 72 H 60 Z"
     fill="#262626"
     id="path27"
     style="stroke-width:4" />
  <path
     d="m 200,616 h 80 v 76 h -80 z"
     fill="#000000"
     id="path28"
     style="stroke-width:4" />
  <path
     d="m 200,428 h 76 v 84 h -20 v -8 h -56 z"
     fill="#000000"
     id="path29"
     style="stroke-width:4" />
  <path
     d="m 592,936 h 160 v 40 h -32 v -4 H 592 Z"
     fill="#262626"
     id="path30"
     style="stroke-width:4" />
  <path
     d="m 796,840 h 28 v 184 h -12 v -4 h -4 v -4 h -12 z"
     fill="#000000"
     id="path31"
     style="stroke-width:4" />
  <path
     d="m 156,624 h 12 v 348 h -16 v -20 h 4 V 776 h -4 v -12 h 4 v -84 h -4 v -8 h 4 z"
     fill="#262626"
     id="path32"
     style="stroke-width:4" />
  <path
     d="m 484,424 h 32 v 128 h -32 z"
     fill="#000000"
     id="path33"
     style="stroke-width:4" />
  <path
     d="m 832,836 h 24 v 140 h -24 z"
     fill="#262626"
     id="path34"
     style="stroke-width:4" />
  <path
     d="m 644,620 h 4 v 56 h 4 v 4 h 4 v 4 h 4 v 4 h 4 v 4 h 4 v 4 h 4 v 4 h 4 v 4 h 4 v 60 h -4 v 4 h -4 v 4 h -4 v 4 h -4 v 4 h -4 v 4 h -4 v 4 h -4 v 4 h -4 v 36 h 4 v 4 h 4 v 4 h 4 v 4 h 4 v 4 h 4 v 4 h 4 v 4 h 4 v 4 h 4 v 12 h -4 v 4 h -4 v 4 h -4 v 4 h -4 v 8 h -8 v 8 h -8 v 4 h -4 v 4 h -4 v 4 h -8 v -12 h 4 v -4 h 8 v -8 h 8 v -8 h 8 v -8 h 4 v -8 h -4 v -8 h -8 v -8 h -8 v -8 h -4 v -52 h 4 v -4 h 4 v -4 h 4 v -4 h 4 v -4 h 4 v -4 h 4 v -4 h 4 v -4 h 4 v -44 h -4 v -4 h -4 v -4 h -4 v -4 h -4 v -4 h -4 v -4 h -4 v -4 h -4 z"
     fill="#ffffff"
     id="path35"
     style="stroke-width:4" />
  <path
     d="m 808,1032 h 36 v 80 h -36 z"
     fill="#000000"
     id="path36"
     style="stroke-width:4" />
  <path
     d="m 56,468 h 84 v 4 h 4 v 28 H 56 Z"
     fill="#262626"
     id="path37"
     style="stroke-width:4" />
  <path
     d="m 704,712 h 12 v 8 h 8 v 92 h -8 v 8 h -8 v 4 h -4 v -8 h 4 v -20 h -4 v -8 h -8 v -4 h -16 v -4 h 4 v -4 h 4 v -4 h 4 v -4 h 4 v -48 h 4 v -4 h 4 z"
     fill="#000000"
     id="path38"
     style="stroke-width:4" />
  <path
     d="m 204,368 h 52 v 44 h -56 v -32 h 4 z"
     fill="#000000"
     id="path39"
     style="stroke-width:4" />
  <path
     d="m 100,196 h 44 v 40 h -44 z"
     fill="#262626"
     id="path40"
     style="stroke-width:4" />
  <path
     d="m 60,380 h 16 v 8 h 8 v -8 h 32 v 32 H 84 v -8 h -8 v 8 H 60 Z"
     fill="#262626"
     id="path41"
     style="stroke-width:4" />
  <path
     d="m 148,764 h 4 v 12 h 4 v 176 h -4 v 16 h -4 V 808 h -28 v -4 h 28 z"
     fill="#ffffff"
     id="path42"
     style="stroke-width:4" />
  <path
     d="m 428,936 h 40 v 8 h 4 v 28 h -36 v -4 h -8 z"
     fill="#000000"
     id="path43"
     style="stroke-width:4" />
  <path
     d="m 700,620 h 4 v 64 h 4 v 8 h 8 v 8 h -4 v -4 h -8 v 4 h -4 v 4 h -4 v 4 h -4 v 4 h -4 v 48 h -4 v 4 h -4 v -60 h -4 v -4 h -4 v -4 h -4 v -4 h 16 v -4 h 4 v -4 h 4 v -4 h 4 v -4 h 4 z"
     fill="#000000"
     id="path44"
     style="stroke-width:4" />
  <path
     d="m 676,612 h 4 v 8 h 8 v 52 h -4 v 4 h -4 v 4 h -8 v -4 h -4 v -4 h -4 v -48 h 4 v -4 h 4 v -4 h 4 z"
     fill="#000000"
     id="path45"
     style="stroke-width:4" />
  <path
     d="m 528,1164 h 32 v 12 h 8 v 20 h -48 v -16 h 8 z"
     fill="#000000"
     id="path46"
     style="stroke-width:4" />
  <path
     d="m 804,764 h 48 v 24 h -48 z"
     fill="#262626"
     id="path47"
     style="stroke-width:4" />
  <path
     d="m 500,1016 h 24 v 12 h 40 v -12 h 20 v 12 h 8 v 4 H 492 v -4 h 8 z"
     fill="#ffffff"
     id="path48"
     style="stroke-width:4" />
  <path
     d="m 728,708 h 4 v 4 h 4 v 68 h 8 v 4 h -8 v 36 h -4 v 4 h -4 z"
     fill="#000000"
     id="path49"
     style="stroke-width:4" />
  <path
     d="m 16,540 h 12 v 8 h 4 v 24 h -4 v 4 h -4 v 4 h -4 v -4 h -4 z"
     fill="#000000"
     id="path50"
     style="stroke-width:4" />
  <path
     d="m 484,936 h 12 v 32 h -4 v 8 h -8 z"
     fill="#000000"
     id="path51"
     style="stroke-width:4" />
  <path
     d="m 128,384 h 16 v 24 h -16 v -8 h -8 v -8 h 8 z"
     fill="#262626"
     id="path52"
     style="stroke-width:4" />
  <path
     d="m 268,368 h 8 v 32 h 8 v 4 h -4 v 8 h -12 z"
     fill="#000000"
     id="path53"
     style="stroke-width:4" />
  <path
     d="m 524,1208 h 32 v 12 h -32 z"
     fill="#000000"
     id="path54"
     style="stroke-width:4" />
  <path
     d="m 692,852 h 8 v 4 h -4 v 4 h -4 v 4 h -4 v 4 h -4 v 4 h -4 v 4 h -4 v 4 h -4 v 4 h -4 v 4 h -4 v -8 h 4 v -4 h 4 v -4 h 4 v -4 h 4 v -12 h 12 z"
     fill="#000000"
     id="path55"
     style="stroke-width:4" />
  <path
     d="m 684,796 h 4 v 4 h 8 v 12 h -4 v 4 h -4 v 4 h -4 v -4 h -4 v -4 h -4 v -12 h 8 z"
     fill="#000000"
     id="path56"
     style="stroke-width:4" />
  <path
     d="m 672,828 h 28 v 4 h -4 v 8 h -8 v 4 h -4 v -4 h -4 v -4 h -4 v -4 h -4 z"
     fill="#000000"
     id="path57"
     style="stroke-width:4" />
  <path
     d="m 420,1120 h 16 v 12 h -16 z"
     fill="#ffffff"
     id="path58"
     style="stroke-width:4" />
  <path
     d="m 372,1120 h 16 v 12 h -16 z"
     fill="#ffffff"
     id="path59"
     style="stroke-width:4" />
  <path
     d="m 328,1120 h 16 v 12 h -16 z"
     fill="#ffffff"
     id="path60"
     style="stroke-width:4" />
</svg>
