<?xml version="1.0" encoding="UTF-8" standalone="no"?>
<svg
   version="1.1"
   width="1024"
   height="1204"
   id="svg62"
   sodipodi:docname="pmu3.svg"
   inkscape:version="1.4.2 (ebf0e940d0, 2025-05-08)"
   xmlns:inkscape="http://www.inkscape.org/namespaces/inkscape"
   xmlns:sodipodi="http://sodipodi.sourceforge.net/DTD/sodipodi-0.dtd"
   xmlns="http://www.w3.org/2000/svg"
   xmlns:svg="http://www.w3.org/2000/svg">
  <defs
     id="defs62" />
  <sodipodi:namedview
     id="namedview62"
     pagecolor="#ffffff"
     bordercolor="#000000"
     borderopacity="0.25"
     inkscape:showpageshadow="2"
     inkscape:pageopacity="0.0"
     inkscape:pagecheckerboard="0"
     inkscape:deskcolor="#d1d1d1"
     inkscape:zoom="1.7607973"
     inkscape:cx="128.06698"
     inkscape:cy="150.5"
     inkscape:window-width="1366"
     inkscape:window-height="736"
     inkscape:window-x="0"
     inkscape:window-y="0"
     inkscape:window-maximized="1"
     inkscape:current-layer="svg62" />
  <path
     d="M 0,0 H 1024 V 1204 H 0 Z"
     fill="#fcfcfc"
     id="path1"
     style="stroke-width:4" />
  <path
     d="m 0,0 h 1024 v 444 h -4 v -4 h -4 v -4 h -4 v -4 h -4 V 124 H 976 V 96 H 940 V 64 H 876 V 60 H 856 V 4 h -12 v 76 h 12 v -8 h 12 v 4 h 64 v 20 h -8 v 12 h 40 v 16 h -40 v 12 h 72 v 308 h 4 v 4 h 4 v 4 h 4 v 12 h -4 v 4 h -4 v 4 h -4 v 12 h -36 v -4 h -68 v 12 h 4 v 164 h 40 v -4 h 60 v 128 h -60 v 24 H 756 v -8 h -4 V 560 h 60 v 92 h 12 V 464 h 36 v 4 h 12 V 452 H 848 V 120 H 752 V 96 h -8 v 4 H 708 V 4 h -16 v 108 h 48 v 8 h -8 v 12 h 104 v 320 h -60 v 28 h -36 v 8 h 4 v 300 h -4 v -64 h -4 v -8 h -8 v -8 h -8 v -4 h -4 v -8 h -8 v -72 h -4 v -4 h -4 v -4 h -4 v -4 h -4 v -4 h 4 v -8 h 8 v -4 h 4 v -8 h 8 v -4 h 4 v -8 h 8 v -8 h 8 v -4 h 4 v -12 h -4 v -4 h -8 v -8 h -8 v -4 h -4 v -8 h -8 v -8 h -4 v -4 h -4 v -60 h 52 v -8 h -60 v 76 h -4 v -4 h -8 v 12 h 4 v 4 h 4 v 4 h 4 v 4 h 4 v 4 h 4 v 4 h 4 v 8 h -4 v 4 h -4 v 4 h -4 v 4 h -4 v 8 h -8 v 4 h -4 v 4 h -4 v 4 h -4 v 4 h -4 v 4 h -4 v 4 h -4 v 4 h -4 v 4 h -4 v 4 h -4 v 4 h -4 v 4 h -4 v 76 h 4 v 4 h 4 v 4 h 4 v 4 h 4 v 4 h 4 v 4 h 4 v 8 h 8 v 44 h -4 v 4 h -4 v 4 h -4 v 4 h -4 v 4 h -4 v 4 h -4 v 4 h -4 v 4 h -4 v 56 h 4 v 4 h 4 v 4 h 4 v 4 h 4 v 4 h 4 v 4 h 4 v 4 h 4 v 4 h -4 v 4 h -4 v 4 h -4 v 4 h -4 v 4 h -4 v 4 h -4 v 4 h -4 v 4 h -4 v 4 h -4 v 12 h 8 v 12 h 12 v -8 h 4 v -4 h 8 v -8 h 4 v -4 h 8 v -8 h 4 v -4 h 8 v -8 h 8 v -8 h 4 v -4 h 8 v -8 h 4 v -4 h 8 v -8 h 4 v -4 h 8 v -8 h 8 v -8 h 4 v -32 h 4 v 44 h -4 v 4 h -4 v 4 h -4 v 32 h 4 v 8 h 8 v 40 H 560 v -8 h -44 v 8 h -40 v -32 h 4 v -4 h 4 v -4 h 4 v -40 h -4 v -4 h -4 v -4 h -4 v -4 h -4 v -36 h 52 v -12 h -4 v -32 h 48 v -20 h -4 v -24 h 4 v -20 h -4 v -32 h 8 v -20 h -8 v -32 h 52 V 376 H 572 V 240 h -4 V 184 H 192 v -56 h -24 v 8 h -16 v -8 h -20 v 60 H 32 v 8 h -4 v 28 h 4 v 36 h -4 v 28 h 4 v 88 h -4 v 24 h 4 v 20 h -4 v 16 h 4 v 36 h -4 v 40 H 16 v 24 h -4 v 4 H 4 v -4 H 0 Z"
     fill="#000000"
     id="path2"
     style="stroke-width:4" />
  <path
     d="m 196,204 h 352 v 8 h 8 v 12 h -8 v 24 h 4 v 4 h 4 v 76 h -8 v 56 h -4 v 4 h 56 v 224 h -80 v -4 h -16 v 4 h -4 v 16 h 16 v 16 h -8 v 48 h 12 v -36 h 36 v 100 h -48 v 48 h -60 v 4 h -8 v -4 h -16 v -20 h -12 v 24 h -44 v 44 h -84 v -28 h -12 v 28 h -24 v -40 h -60 v -44 h 20 v -4 h 16 v -12 h -16 v -32 h 40 v 32 h -12 v 12 h 12 v 4 H 376 V 756 H 284 V 608 h -16 v 8 h -32 v -16 h 4 v -52 h -4 v -16 h 8 v -16 h -52 v -80 h 76 v 104 h 16 V 416 h -16 v 12 h -12 v -52 h -12 v 52 h -56 v -36 h 8 v -64 h -12 v -68 h 4 v -12 h 8 z"
     fill="#000000"
     id="path3"
     style="stroke-width:4" />
  <path
     d="m 1020,472 h 4 v 732 H 0 v -152 h 24 v 96 h 8 v 52 h 244 v -36 h 8 v -8 h -4 v -16 h 36 v 8 h 16 v -8 h 28 v 8 h 20 v -8 h 32 v 8 h 16 v -8 h 44 v 16 h -12 v 44 h 156 v -20 h 4 v -8 h 4 v -24 h 224 v 16 h 112 v -12 h 32 v -4 h 16 v -20 h -4 v -24 h 4 v -24 h -4 v -20 h 4 v -28 h -4 v -4 h -4 v -16 h 8 V 892 h -52 v -44 h -40 v -36 h 28 v -24 h 64 V 636 H 912 V 492 h 100 v -12 h 4 v -4 h 4 z"
     fill="#000000"
     id="path4"
     style="stroke-width:4" />
  <path
     d="m 152,144 h 16 v 4 h 4 v 8 h -4 v 12 h 8 v 68 h -8 v 12 h 8 v 284 h 8 v 20 h 24 v 44 h -24 v 20 h -8 v 344 h 4 v 8 h -4 v 24 h -4 v 12 h 48 v 4 h 20 v -4 h 20 v 4 h 28 v -4 h 28 v 4 h 16 v -4 h 36 v 4 h 12 v -4 h 32 v 4 h 104 v -4 h 36 v -32 h -36 v -16 h 8 v -4 h 4 v -4 h 16 v 4 h 4 v 4 h 12 v 52 h 32 v -4 h 8 v 4 h 56 v -4 h 8 v 4 H 828 V 892 h -4 v -4 h -4 v -4 h -4 v -8 h -4 v -4 h -8 v -4 h -8 v -4 h -4 v -4 h -36 v -12 h 16 v -4 h 28 v 4 h 12 v -28 h 4 v 36 h -4 v -4 h -8 v 12 h 20 v -44 h 76 v 28 h -56 v 92 h -4 v 40 h 4 v 28 h 4 v 32 h -40 v -4 h -20 v 8 h -32 v -8 h -16 v 8 h -32 v -8 h -16 v 8 h -28 v -4 h -48 v -4 h -24 v 8 h -12 v -8 h -24 v 8 h -40 v -8 h -20 v 8 h -12 v -8 h -24 v 8 h -32 v -8 h -16 v 8 h -32 v -8 h -20 v 8 h -28 v -8 h -16 v 8 h -76 v -8 h -16 v 8 h -36 v -8 h -12 v 8 h -32 v -8 h -4 v -12 h -12 v 12 H 72 v -36 h 92 V 628 h -20 v -12 h -4 v -84 h 4 v -60 h -8 v -8 h 4 v -12 h -4 V 264 h 4 v -16 h 16 v -12 h -12 v -68 h 8 v -12 h -8 v -8 h 8 z"
     fill="#262626"
     id="path5"
     style="stroke-width:4" />
  <path
     d="m 40,1052 h 216 v 84 h -4 v 12 h -56 v -12 H 52 v -4 H 40 Z"
     fill="#262626"
     id="path6"
     style="stroke-width:4" />
  <path
     d="m 264,1052 h 208 v 84 H 264 Z"
     fill="#262626"
     id="path7"
     style="stroke-width:4" />
  <path
     d="m 48,256 h 84 V 384 H 68 v 8 h 36 v 8 h 8 v -8 h 20 v 32 h -20 v -8 h -8 v 8 H 68 v 8 h 64 v 44 H 48 Z"
     fill="#262626"
     id="path8"
     style="stroke-width:4" />
  <path
     d="m 48,712 h 84 V 892 H 48 V 752 H 36 v -4 h -4 v -20 h 4 v -4 h 12 z"
     fill="#262626"
     id="path9"
     style="stroke-width:4" />
  <path
     d="m 608,1052 h 184 v 20 h -4 v 8 h -4 v 12 h 8 v 8 h -8 v 8 h 4 v 4 h 4 v 24 H 608 Z"
     fill="#262626"
     id="path10"
     style="stroke-width:4" />
  <path
     d="m 484,1052 h 12 v 4 h 20 v -4 h 40 v 4 h 24 v -4 h 12 v 4 h 8 v 96 h 4 v 4 h 4 v 4 h 4 v 4 h -4 v 4 h -4 v 4 h -8 v 8 h -36 v -28 h -48 v 28 h -32 v -124 h 4 z"
     fill="#000000"
     id="path11"
     style="stroke-width:4" />
  <path
     d="m 852,864 h 92 v 44 h 48 v 36 h -40 v -12 h -8 v 28 h 48 v 32 H 892 v -80 h -8 v -8 h -4 v -4 h -28 z"
     fill="#000000"
     id="path12"
     style="stroke-width:4" />
  <path
     d="m 376,816 h 84 v 48 h 8 v 4 h 4 v 4 h 4 v 4 h 4 v 16 h -8 v 8 h -4 v 4 h -8 v 40 h -84 z"
     fill="#262626"
     id="path13"
     style="stroke-width:4" />
  <path
     d="m 4,608 h 8 v 4 h 4 v 24 h 16 v 72 h -4 v 8 h -8 v 40 h 4 v 4 h 4 v 4 h 4 V 992 H 0 V 612 h 4 z"
     fill="#000000"
     id="path14"
     style="stroke-width:4" />
  <path
     d="m 692,632 h 8 v 68 h 4 v 8 h 8 v 4 h 4 v 12 h 4 v 4 h 12 v 68 h 8 v 8 h -8 v 36 h -12 v 4 h -4 v 4 h -4 v 4 h -4 v 4 h -4 v 4 h -4 v 4 h -4 v 4 h -4 v 4 h -4 v 4 h -8 v -4 h -8 v -8 h -4 v -4 h -12 v -4 h -4 v -4 h -4 v -4 h -4 v -40 h 4 v -4 h 8 v -4 h 4 v -4 h 4 v -4 h 4 v -4 h 4 v -4 h 4 v -60 h -4 v -8 h -8 v -8 h 4 v 4 h 8 v -4 h 8 v -8 h 8 z"
     fill="#d6d6d6"
     id="path15"
     style="stroke-width:4" />
  <path
     d="m 244,908 h 124 v 88 h -36 v -4 h -68 v 4 h -20 z"
     fill="#262626"
     id="path16"
     style="stroke-width:4" />
  <path
     d="m 440,372 h 40 v 16 h -4 v 40 h 44 v 152 h -16 v -4 h -24 v 8 H 460 V 392 h -8 v 4 h -12 z"
     fill="#ffffff"
     id="path17"
     style="stroke-width:4" />
  <path
     d="m 856,1004 h 40 v 44 h 48 v 100 h -84 v -36 h 4 v -16 h -8 v -4 h 8 v -16 h -8 z"
     fill="#262626"
     id="path18"
     style="stroke-width:4" />
  <path
     d="m 36,532 h 96 v 84 H 60 v -4 H 36 v -20 h -4 v -40 h 4 z"
     fill="#000000"
     id="path19"
     style="stroke-width:4" />
  <path
     d="m 44,1148 h 132 v 16 h 92 v 24 H 44 Z"
     fill="#000000"
     id="path20"
     style="stroke-width:4" />
  <path
     d="m 48,904 h 84 v 88 H 48 Z"
     fill="#262626"
     id="path21"
     style="stroke-width:4" />
  <path
     d="m 616,956 h 204 v 16 h -32 v 28 h -32 v -28 h -8 v 24 h -40 v -4 h -92 z"
     fill="#262626"
     id="path22"
     style="stroke-width:4" />
  <path
     d="m 48,636 h 84 v 72 H 48 Z"
     fill="#262626"
     id="path23"
     style="stroke-width:4" />
  <path
     d="m 192,632 h 76 v 76 h -76 z"
     fill="#000000"
     id="path24"
     style="stroke-width:4" />
  <path
     d="m 248,860 h 24 v 4 h 96 v 40 H 248 Z"
     fill="#000000"
     id="path25"
     style="stroke-width:4" />
  <path
     d="m 140,640 h 16 v 352 h -16 v -20 h 4 V 792 h -4 v -12 h 4 v -84 h -4 v -8 h 4 v -8 h -4 z"
     fill="#262626"
     id="path26"
     style="stroke-width:4" />
  <path
     d="m 188,820 h 52 v 84 h -52 z"
     fill="#262626"
     id="path27"
     style="stroke-width:4" />
  <path
     d="m 784,464 h 28 v 84 h -60 v -56 h 32 z"
     fill="#000000"
     id="path28"
     style="stroke-width:4" />
  <path
     d="m 188,912 h 48 v 80 h -20 v 4 h -4 v -4 h -24 v -32 h 4 v -16 h -4 z"
     fill="#000000"
     id="path29"
     style="stroke-width:4" />
  <path
     d="m 476,436 h 28 v 128 h -28 z"
     fill="#000000"
     id="path30"
     style="stroke-width:4" />
  <path
     d="m 376,952 h 36 v 4 h 48 v 36 h -48 v 4 h -32 v -4 h -4 z"
     fill="#000000"
     id="path31"
     style="stroke-width:4" />
  <path
     d="m 460,600 h 16 v 12 h 16 v 16 h -16 v 12 h -4 v 28 h 12 v -20 h 12 v 32 h -24 v 8 h 4 v 28 h -4 v 8 h 4 v 28 h -4 v 24 h -12 z"
     fill="#ffffff"
     id="path32"
     style="stroke-width:4" />
  <path
     d="m 808,1048 h 16 v 4 h 12 v 4 h 8 v 76 h -40 v -80 h 4 z"
     fill="#000000"
     id="path33"
     style="stroke-width:4" />
  <path
     d="m 904,1004 h 84 v 12 h 4 v 12 h -4 v 12 h -64 v -12 h -12 v 12 h -8 z"
     fill="#000000"
     id="path34"
     style="stroke-width:4" />
  <path
     d="m 40,480 h 88 v 28 H 40 Z"
     fill="#262626"
     id="path35"
     style="stroke-width:4" />
  <path
     d="m 700,728 h 8 v 4 h 4 v 4 h 4 v 96 h -4 v 4 h -4 v 4 h -4 v -28 h -4 v -4 h -4 v -4 h -24 v -4 h 4 v -4 h 4 v -4 h 4 v -4 h 4 v -4 h 4 v -48 h 4 v -4 h 4 z"
     fill="#000000"
     id="path36"
     style="stroke-width:4" />
  <path
     d="m 852,908 h 20 v 4 h 4 v 4 h 4 v 4 h 4 v 28 h -8 v 12 h -8 v 12 h 16 v 20 h -24 v -20 h -8 v -12 h -4 v -4 h 4 z"
     fill="#000000"
     id="path37"
     style="stroke-width:4" />
  <path
     d="m 308,368 h 24 v 8 h 80 v -8 h 20 v 28 h -4 v -4 h -8 v 4 h -8 v -8 h -80 v 8 h -8 v -4 h -8 v 4 h -8 z"
     fill="#ffffff"
     id="path38"
     style="stroke-width:4" />
  <path
     d="m 752,868 h 28 v 4 h 8 v 4 h 8 v 4 h 4 v 20 h -36 v 8 h 36 v 8 h -44 v -8 h 4 v -8 h -4 v -4 h -4 v -4 h -4 v -8 h -4 v -8 h 4 v -4 h 4 z"
     fill="#000000"
     id="path39"
     style="stroke-width:4" />
  <path
     d="m 88,200 h 40 v 44 H 88 Z"
     fill="#262626"
     id="path40"
     style="stroke-width:4" />
  <path
     d="m 692,632 h 8 v 68 h 4 v 8 h 8 v 4 h 4 v 8 h -4 v -4 h -16 v 4 h -4 v 4 h -4 v 4 h -4 v 48 h -4 v 4 h -4 v -56 h -4 v -8 h -8 v -8 h 4 v 4 h 8 v -4 h 8 v -8 h 8 z"
     fill="#000000"
     id="path41"
     style="stroke-width:4" />
  <path
     d="m 664,632 h 16 v 8 h 8 v 44 h -4 v 4 h -4 v 4 h -4 v 4 h -8 v -4 h -4 v -4 h -4 v -48 h 4 z"
     fill="#000000"
     id="path42"
     style="stroke-width:4" />
  <path
     d="m 132,380 h 4 v 72 h 4 v 12 h -4 v 4 h -4 V 432 H 68 v -8 h 36 v -8 h 8 v 8 h 20 v -32 h -20 v 8 h -8 v -8 H 68 v -8 h 64 z"
     fill="#ffffff"
     id="path43"
     style="stroke-width:4" />
  <path
     d="m 952,1096 h 40 v 32 h -4 v 8 h -24 v -4 h -12 z"
     fill="#000000"
     id="path44"
     style="stroke-width:4" />
  <path
     d="m 952,1052 h 40 v 36 h -40 z"
     fill="#000000"
     id="path45"
     style="stroke-width:4" />
  <path
     d="m 48,200 h 28 v 48 H 44 v -24 h 4 z"
     fill="#262626"
     id="path46"
     style="stroke-width:4" />
  <path
     d="m 756,928 h 64 v 20 h -64 z"
     fill="#000000"
     id="path47"
     style="stroke-width:4" />
  <path
     d="m 264,368 h 36 v 24 h -16 v 20 h -20 z"
     fill="#ffffff"
     id="path48"
     style="stroke-width:4" />
  <path
     d="m 280,1136 h 188 v 4 h -40 v 8 h -16 v -8 h -32 v 8 h -20 v -8 h -28 v 8 h -16 v -8 h -36 z"
     fill="#ffffff"
     id="path49"
     style="stroke-width:4" />
  <path
     d="m 760,816 h 44 v 24 h -44 z"
     fill="#262626"
     id="path50"
     style="stroke-width:4" />
  <path
     d="m 584,956 h 24 v 36 h -24 z"
     fill="#262626"
     id="path51"
     style="stroke-width:4" />
  <path
     d="m 472,956 h 20 v 36 h -8 v 8 h -12 z"
     fill="#262626"
     id="path52"
     style="stroke-width:4" />
  <path
     d="m 4,552 h 4 v 4 h 8 v 4 h 4 v 28 h -4 v 4 h -4 v 4 H 4 Z"
     fill="#000000"
     id="path53"
     style="stroke-width:4" />
  <path
     d="m 28,1000 h 16 v 36 H 28 Z"
     fill="#262626"
     id="path54"
     style="stroke-width:4" />
  <path
     d="m 792,980 h 28 v 16 h 4 v 4 h -32 z"
     fill="#000000"
     id="path55"
     style="stroke-width:4" />
  <path
     d="m 712,564 h 4 v 8 h -4 v 4 h -4 v 4 h -4 v 4 h -4 v 4 h -4 v 4 h -4 v 4 h -4 v 4 h -4 v 4 h -4 v 16 h -4 v -4 h -12 v -4 h 4 v -4 h 4 v -4 h 4 v -4 h 4 v -4 h 4 v -4 h 4 v -4 h 4 v -4 h 4 v -4 h 4 v -4 h 4 v -4 h 4 v -4 h 4 z"
     fill="#000000"
     id="path56"
     style="stroke-width:4" />
  <path
     d="m 4,1004 h 12 v 36 H 4 Z"
     fill="#000000"
     id="path57"
     style="stroke-width:4" />
  <path
     d="m 664,840 h 4 v 4 h 28 v -4 h 8 v 4 h -4 v 4 h -4 v 4 h -4 v 4 h -4 v 4 h -12 v -4 h -4 v -8 h -8 z"
     fill="#000000"
     id="path58"
     style="stroke-width:4" />
  <path
     d="m 804,888 h 8 v 4 h 4 v 4 h 4 v 20 h -16 z"
     fill="#000000"
     id="path59"
     style="stroke-width:4" />
  <path
     d="m 676,816 h 12 v 4 h 4 v 8 h -4 v 8 h -12 v -8 h -4 v -8 h 4 z"
     fill="#000000"
     id="path60"
     style="stroke-width:4" />
  <path
     d="m 544,628 h 12 v 16 h -12 z"
     fill="#000000"
     id="path61"
     style="stroke-width:4" />
  <path
     d="m 716,552 h 8 v 4 h 4 v 4 h -4 v 4 h -8 z"
     fill="#000000"
     id="path62"
     style="stroke-width:4" />
</svg>
