<?xml version="1.0" encoding="UTF-8" standalone="no"?>
<svg
   version="1.1"
   width="1024"
   height="1260"
   id="svg97"
   sodipodi:docname="pmu1.svg"
   inkscape:version="1.4.2 (ebf0e940d0, 2025-05-08)"
   xmlns:inkscape="http://www.inkscape.org/namespaces/inkscape"
   xmlns:sodipodi="http://sodipodi.sourceforge.net/DTD/sodipodi-0.dtd"
   xmlns="http://www.w3.org/2000/svg"
   xmlns:svg="http://www.w3.org/2000/svg">
  <defs
     id="defs97" />
  <sodipodi:namedview
     id="namedview97"
     pagecolor="#ffffff"
     bordercolor="#000000"
     borderopacity="0.25"
     inkscape:showpageshadow="2"
     inkscape:pageopacity="0.0"
     inkscape:pagecheckerboard="0"
     inkscape:deskcolor="#d1d1d1"
     inkscape:zoom="1.6825397"
     inkscape:cx="128.08019"
     inkscape:cy="423.16981"
     inkscape:window-width="1366"
     inkscape:window-height="736"
     inkscape:window-x="0"
     inkscape:window-y="0"
     inkscape:window-maximized="1"
     inkscape:current-layer="svg97" />
  <path
     d="M 0,0 H 1024 V 1260 H 0 Z"
     fill="#fcfcfc"
     id="path1"
     style="stroke-width:4" />
  <path
     d="m 168,136 h 40 v 28 h 4 v 28 h 4 v 44 h -4 v -4 h -8 v 12 h 20 v -52 h 16 v 8 h 32 v -8 h 16 v 8 h 28 v -8 h 20 v 8 h 24 v -8 h 20 v 8 h 24 v -4 h 60 v 4 h 40 v 36 h -72 v 16 h -32 v 40 h 100 v 32 h -8 v 4 h 12 v 16 h -24 v 24 h -4 v 132 h -12 v 8 h -16 v -12 h -20 v 96 h 4 v 164 h 44 v 16 h -56 v 152 h 52 v 36 h 24 v 12 h 32 v -8 h 36 v -24 h 24 v 32 H 824 V 844 h -16 v -8 h 8 v -8 h 8 v -44 h 12 v 72 h 24 v -24 h 32 v 36 h -32 v -8 h -24 v 112 h 24 v -8 h 48 v 4 h 24 v 4 h 32 v -4 h 20 v 36 h -48 v 84 h -4 v 16 h -72 v -20 h -4 v -16 h 4 v -16 h -24 v 32 h -4 v 4 h -68 v -4 h -28 v 8 h -16 v -8 h -28 v 8 h -16 v -8 h -32 v 8 h -16 v -8 h -8 v -72 h 8 v -16 h -24 v 4 h -16 v -4 h -24 v 4 h -32 v -4 h -24 v 4 h -16 v -4 h -20 v 4 h -24 v -4 h -20 v 4 h -28 v -4 h -20 v 4 h -24 v -4 h -20 v 4 h -28 v -4 h -28 v 16 h 4 v 24 h 8 v 28 h -8 v 20 h -4 v 20 h 4 v 16 h 8 v 20 h 8 v 4 h -32 v -8 h -28 v 8 h -16 v -8 h -28 v 8 h -16 v -8 h -28 v 8 h -16 v -8 h -12 v -12 h -20 v 8 h 12 v 4 h -12 v 8 H 84 v -44 h 28 v 4 h -8 v 8 h 20 v -8 h 4 v -20 h -16 v 8 H 84 v -8 h -4 v -4 h 4 v -16 H 72 v -28 h 12 v -20 h -4 v -4 h 88 v -76 h 8 V 892 H 80 v -8 h 4 v -28 h -4 v -20 h 4 v -24 h -4 v -20 h 4 v -28 h -4 v -20 h 4 V 724 H 72 v -4 h -4 v -16 h 4 v -8 h 12 v -44 h 16 v 96 h 4 v 4 h 4 v 4 h 32 v -4 h 4 V 652 h 16 v 4 h 8 v -4 h 8 v -16 h -8 v -24 h 8 v -20 h -8 v -8 h 8 v -20 h -8 v -24 h 8 v -20 h -8 v -8 h 8 v -20 h -8 v -16 h 8 v -24 h -8 V 336 h 8 v -16 h -32 v -28 h -8 v -96 h 8 v 4 h 24 z"
     fill="#262626"
     id="path2"
     style="stroke-width:4" />
  <path
     d="m 0,0 h 696 v 16 h -8 v 44 h 8 v 8 h -12 v 32 h -28 v 68 h 112 v 16 h 28 v -52 h 36 v 8 h -12 v 28 h 12 v 16 h -12 v 40 h 16 v 24 h -16 v 40 h 12 v 16 h -8 v 36 h 12 v 24 h -12 v 36 h 8 v 4 h -4 v 32 h -44 v -4 h 4 v -32 h -24 v 32 h -4 v 32 h -12 v 292 h -4 v -60 h -4 v -4 h -4 v -4 h -4 v -4 h -4 v -4 h -4 v -4 h -4 v -4 h -4 v -4 h -4 v -64 h -4 v -4 h -4 v -8 h -8 v -4 h -4 v -4 h 8 v -4 h 4 v -4 h 4 v -4 h 4 v -8 h 8 v -4 h 4 v -8 h 8 v -4 h 4 v -4 h 4 v -12 h -4 v -4 h -4 v -4 h -4 v -4 h -4 v -4 h -4 v -4 h -4 v -4 h -4 v -4 h -4 v -4 h -4 v -64 h -12 v 68 h -4 v -68 h -8 v 24 h -4 v -4 h -4 v -4 h -12 v -4 h -12 v -4 h -8 v -4 h -16 v -20 h 24 v -32 h -20 v 16 h 8 v 8 h -76 v 8 h 52 v 16 h -24 v 12 h 24 v 16 h -28 v -28 h -8 v 28 h -24 v -40 h -8 v 40 h -24 v 16 h 20 v -4 h -8 v -8 h 80 v 8 h 12 v -24 h 4 v 4 h 16 v 4 h 4 v 4 h 8 v 4 h 4 v 4 h -4 v 12 h -4 v 12 h -40 v 8 h -80 v -4 h 8 v -8 h -20 v 28 h 16 v -8 h 76 v 28 h -80 v -8 h -12 v 16 h -4 v 12 h 16 v -8 h 76 v 8 h 4 v 4 h -92 v 12 h 92 v 16 h -84 v -12 h -12 v 24 h 12 v 16 h -12 v 16 h 16 v -4 h 32 v 20 h -32 v -4 h -16 v 16 h 60 v -8 h 40 v -48 h 8 v -96 h 36 v -8 h 4 v -8 h 4 v -8 h 4 v -12 h 4 v -8 h 4 v 44 h 4 v 4 h 4 v 4 h 4 v 4 h 4 v 4 h 4 v 4 h 4 v 4 h 4 v 4 h -8 v 8 h -8 v 4 h -4 v 8 h -8 v 4 h -4 v 8 h -8 v 8 h -8 v 4 h -4 v 8 h -8 v 4 h -4 v 84 h 8 v 4 h 4 v 8 h 8 v 4 h 4 v 8 h 4 v 36 h -4 v 8 h -4 v 4 h -8 v 8 h -4 v 4 h -8 v 8 h -4 v 48 h 4 v 8 h 4 v 4 h 8 v 8 h 8 v 4 h 4 v 4 h -4 v 4 h -4 v 4 h -4 v 4 h -4 v 4 h -4 v 4 h -4 v 4 h -4 v 4 h -4 v 8 h 12 v -4 h 4 v -4 h 4 v -4 h 4 v -4 h 4 v -4 h 8 v -8 h 4 v -4 h 4 v -12 h 16 v -4 h 4 v 8 h -4 v 4 h -8 v 8 h -4 v 4 h -8 v 8 h -8 v 8 h -4 v 4 h -8 v 8 h -4 v 4 h -8 v 8 h -4 v 4 h 16 v -4 h 4 v -4 h 4 v -4 h 4 v -4 h 4 v -4 h 4 v -4 h 4 v -8 h 8 v -4 h 4 v -4 h 4 v -4 h 4 v -4 h 4 v -4 h 4 v -4 h 4 v -8 h 8 v -4 h 4 v -4 h 4 v -4 h 4 v 36 h 4 v 4 h 4 v 4 h 4 v 36 H 596 v -4 h -24 v -4 h -8 v -4 h -32 v -12 h 88 V 728 h -40 v -60 h -20 v 8 h -40 v 4 h 40 v 12 h 8 v 32 h -12 v 20 h 20 v -4 h 4 v 40 h -8 v 8 h 16 v -36 h 20 v 116 h -24 v -76 h -4 v 36 h -40 v 8 h 40 v 32 h -52 v -32 h 4 v -8 h -12 v 76 h -32 v -32 h 8 v -4 h 4 v -40 h -8 v -4 h -4 v -40 h 20 v 4 h 24 v -24 h -12 v 8 h -36 v -28 h -40 v -20 h 40 v -8 h -4 v -8 h -8 v 8 H 444 V 604 h 40 V 484 h 4 v -16 h 4 v -12 h -4 v -20 h -4 v -4 h 4 v -4 h 4 v -24 h 40 v -36 h -44 v -16 h 32 v 12 h 12 V 344 H 512 V 200 h 56 v 28 h -52 v 60 h 16 v -12 h -4 v -32 h 44 v 28 h -8 v 16 h 8 v 32 h -8 v 16 h 4 v 8 h 12 v -12 h 4 V 232 h -4 v -44 h -4 v -4 h -64 v 4 h -16 v -4 h -28 v 4 h -64 v -4 h -24 v 4 h -20 v -4 h -24 v 4 h -16 v -4 h -32 v 4 h -16 v -4 h -32 v 4 h -8 v -4 h -12 v -28 h -4 v -28 h -56 v 28 h -4 v 28 H 68 v 72 h -8 v 28 h 8 v 84 h -8 v 20 h 8 v 16 h -8 v 20 h 8 v 32 h -8 v 36 H 48 v 24 H 0 Z"
     fill="#000000"
     id="path3"
     style="stroke-width:4" />
  <path
     d="m 704,8 h 136 v 20 h 12 v 20 h -12 v 32 h 108 v 24 h 8 v 12 h 8 v 16 h 24 v 16 h 12 v 12 h -12 v 32 h 8 v 20 h -8 v 44 h 8 v 20 h -8 v 36 h 8 v 20 h -8 v 40 h 8 v 20 h -8 v 32 h 4 v 4 h 4 v 8 h 16 v 8 h -4 v 4 h -8 v 4 h -4 v 4 h -4 v 4 h -4 v 8 h -12 v 12 h -20 v -12 h -60 v 152 h 92 v 132 h -60 v 20 H 756 V 468 h 12 v -36 h 4 v 16 h 68 v -36 h 4 v -24 h -12 v -16 h 12 v -40 h -12 v -20 h 8 v -36 h -8 v -20 h 12 v -40 h -12 v -24 h 8 v -32 h -8 v -12 h 8 v -24 h -56 v 52 h -8 V 160 H 668 v -36 h -8 v -12 h 44 V 92 H 692 V 76 h 12 V 48 H 692 V 28 h 12 z"
     fill="#000000"
     id="path4"
     style="stroke-width:4" />
  <path
     d="m 1008,456 h 16 v 804 H 756 v -156 h 40 v 16 h -24 v 32 h 96 v -28 h 52 v -4 h 28 v -12 h 8 v -4 h 20 v 4 h 20 v -16 h 4 v -40 h -4 v -8 h 4 v -36 h -4 v -4 h -4 v -40 h 8 v -20 h -4 v -16 h 4 v -68 h -4 v -4 h -20 v 4 h -28 v -16 h 4 V 816 H 852 v -32 h 84 v -24 h 64 V 612 H 904 V 476 h 44 v 12 h 32 v -12 h 20 v -12 h 4 v -4 h 4 z"
     fill="#000000"
     id="path5"
     style="stroke-width:4" />
  <path
     d="m 0,584 h 48 v 24 h 20 v 72 h -8 v 8 h -4 v 4 h -4 v 36 h 4 v 4 h 4 v 4 h 4 v 4 h 4 V 952 H 48 v 4 H 24 v 56 h 36 v 88 h 8 v 20 H 36 v 92 h 272 v -4 h 168 v -56 h 36 v 16 h -4 v 24 h 4 v 68 H 0 Z"
     fill="#000000"
     id="path6"
     style="stroke-width:4" />
  <path
     d="m 160,128 h 56 v 28 h 4 v 28 h 12 v 4 h 8 v -4 h 32 v 4 h 16 v -4 h 32 v 4 h 16 v -4 h 24 v 4 h 20 v 4 h -20 v 8 h -24 v -8 h -20 v 8 h -28 v -8 h -16 v 8 h -32 v -8 h -16 v 52 h -20 v -12 h 8 v 4 h 4 v -44 h -4 v -28 h -4 v -28 h -40 v 64 h -24 v -4 h -8 v 96 h 8 v 28 h 32 v 16 h -8 v 116 h 8 v 24 h -8 v 16 h 8 v 20 h -8 v 8 h 8 v 20 h -8 v 24 h 8 v 20 h -8 v 4 h -4 v 4 H 72 v 12 h -4 v 4 H 48 V 584 H 0 v -68 h 48 v -24 h 12 v -36 h 8 v -32 h -8 v -20 h 8 v -16 h -8 v -20 h 8 v -84 h -8 v -28 h 8 v -72 h 88 v -28 h 4 z m 220,56 h 4 v 4 h -4 z"
     fill="#ffffff"
     id="path7"
     style="stroke-width:4" />
  <path
     d="m 308,1144 h 160 v 56 H 304 v 4 H 44 v -52 h 264 z"
     fill="#262626"
     id="path8"
     style="stroke-width:4" />
  <path
     d="m 852,0 h 172 v 432 h -12 v -4 h -4 v -4 h -4 v -4 h -4 v -16 h 8 v -44 h -16 v -20 h 16 v -36 h -8 v -16 h 4 v -44 h -4 v -20 h 4 v -36 h -4 v -20 h 8 v -28 h -8 v -16 h -24 v -20 h -8 V 96 H 956 V 72 H 852 V 56 h 12 V 16 h -12 z"
     fill="#000000"
     id="path9"
     style="stroke-width:4" />
  <path
     d="m 296,1008 h 40 v 4 h 16 v -4 h 32 v 4 h 16 v -4 h 28 v 4 h 16 v -4 h 32 v 4 h 12 v -4 h 20 v 4 h 24 v -4 h 32 v 4 h 20 v -4 h 20 v 4 h 8 v 80 h -36 v -48 h -52 v 24 H 344 v 64 h -48 z"
     fill="#262626"
     id="path10"
     style="stroke-width:4" />
  <path
     d="m 620,1100 h 128 v 156 H 620 Z"
     fill="#262626"
     id="path11"
     style="stroke-width:4" />
  <path
     d="m 292,676 h 76 v 4 h 24 v 76 h -20 v -8 h 12 v -8 h -88 v 76 h 88 v -56 h 8 v 116 h -84 v 8 h -16 v -8 H 248 V 732 h 28 v -8 h 16 v -16 h 4 v -4 h -4 v -12 h -4 v -8 h 4 z"
     fill="#ffffff"
     id="path12"
     style="stroke-width:4" />
  <path
     d="m 204,316 h 20 v 16 h 28 v -8 h 8 v 16 h -12 v 24 h 40 v -16 h 4 v -28 h 116 v 40 h -48 v 4 h 48 v 16 h -4 v 80 h -16 v 4 h 8 v 56 H 296 v -4 H 260 V 412 h 44 v 16 h 8 v 32 h -8 v 12 h 16 v -8 h 60 v -12 h 12 v -60 h -8 v -12 h -28 v 4 h -28 v -12 h -4 v 4 h -88 v -12 h 4 v -24 h -24 v -12 h -4 v 60 h -4 v -4 h -4 z"
     fill="#ffffff"
     id="path13"
     style="stroke-width:4" />
  <path
     d="m 696,0 h 156 v 16 h 12 v 40 h -12 v 16 h 104 v 24 h 12 v 8 h 8 v 20 h 24 v 16 h 8 v 28 h -8 v 20 h 4 v 36 h -4 v 20 h 4 v 44 h -4 v 16 h 8 v 36 h -16 v 20 h 16 v 44 h -8 v 16 h 4 v 4 h 4 v 4 h 4 v 4 h 12 v 24 h -16 v 4 h -4 v 4 h -4 v 12 h -24 v -8 h 12 v -8 h 4 v -4 h 4 v -4 h 4 v -4 h 8 v -4 h 4 v -8 h -16 v -8 h -4 v -4 h -4 v -32 h 8 v -20 h -8 v -40 h 8 v -20 h -8 v -36 h 8 v -20 h -8 v -44 h 8 v -20 h -8 v -32 h 12 v -12 h -12 v -16 h -24 v -16 h -8 v -12 h -8 V 80 H 840 V 48 h 12 V 28 H 840 V 8 H 704 v 20 h -12 v 20 h 12 v 28 h -12 v 16 h 12 v 20 h -44 v 12 h 8 v 36 h 108 v 16 h 8 v -52 h 56 v 24 h -8 v 12 h 8 v 32 h -8 v 24 h 12 v 40 h -12 v 20 h 8 v 36 h -8 v 20 h 12 v 40 h -12 v 16 h 12 v 24 h -4 v 36 h -68 v -16 h -4 v 36 h -12 v -4 h 4 v -32 h 4 v -32 h 24 v 32 h -4 v 4 h 44 v -32 h 4 v -4 h -8 v -36 h 12 v -24 h -12 v -36 h 8 v -16 h -12 v -40 h 16 v -24 h -16 v -40 h 12 v -16 h -12 v -28 h 12 v -8 h -36 v 52 H 768 V 168 H 656 v -68 h 28 V 68 h 12 v -8 h -8 V 16 h 8 z"
     fill="#fdfdfd"
     id="path14"
     style="stroke-width:4" />
  <path
     d="m 60,508 h 104 v 84 H 72 v 12 H 60 V 576 H 8 v -48 h 52 z"
     fill="#262626"
     id="path15"
     style="stroke-width:4" />
  <path
     d="m 896,832 h 40 v 40 h 4 v 4 h 44 v 48 h -76 v 32 h -48 v -80 h 36 z"
     fill="#262626"
     id="path16"
     style="stroke-width:4" />
  <path
     d="m 532,1052 h 36 v 40 h -88 v 40 h -32 v -8 h -20 v 8 h -24 v -8 h -20 v 8 h -28 v -8 h -4 v -48 h 180 z"
     fill="#000000"
     id="path17"
     style="stroke-width:4" />
  <path
     d="m 284,736 h 8 v 88 h 92 v 44 H 256 V 740 h 28 z"
     fill="#262626"
     id="path18"
     style="stroke-width:4" />
  <path
     d="m 76,328 h 88 v 84 H 76 v -32 h -4 v -8 h 4 z"
     fill="#262626"
     id="path19"
     style="stroke-width:4" />
  <path
     d="m 428,780 h 48 v 44 h 4 v 4 h 4 v 4 h 8 v 28 h -4 v 4 h -4 v 4 h -4 v 4 h -4 v 44 h -48 z"
     fill="#262626"
     id="path20"
     style="stroke-width:4" />
  <path
     d="m 76,936 h 84 v 64 H 76 v 4 H 56 v -4 H 32 v -36 h 28 v -4 h 16 z"
     fill="#000000"
     id="path21"
     style="stroke-width:4" />
  <path
     d="m 204,316 h 20 v 16 h 28 v -8 h 8 v 16 h -12 v 24 h 40 v -16 h 4 v -28 h 116 v 40 h -16 v -4 h -60 v 12 h -4 v 4 h -4 v 4 h -88 v -12 h 4 v -24 h -24 v -12 h -4 v 60 h -4 v -4 h -4 z"
     fill="#ffffff"
     id="path22"
     style="stroke-width:4" />
  <path
     d="m 76,192 h 56 v 100 h -32 v 8 h 32 v 20 H 76 v -48 h -4 v -8 h 4 z"
     fill="#262626"
     id="path23"
     style="stroke-width:4" />
  <path
     d="m 296,740 h 88 v 8 h -12 v 8 h 12 v 60 h -88 z"
     fill="#262626"
     id="path24"
     style="stroke-width:4" />
  <path
     d="m 88,600 h 60 v 4 h 16 v 40 h -28 v 100 h -4 v 4 h -8 v 4 h -4 v -4 h -4 v -4 h -4 v -4 h -4 V 644 H 80 v -40 h 8 z"
     fill="#262626"
     id="path25"
     style="stroke-width:4" />
  <path
     d="m 596,920 h 152 v 40 H 596 Z"
     fill="#262626"
     id="path26"
     style="stroke-width:4" />
  <path
     d="m 244,236 h 104 v 48 H 244 Z"
     fill="#262626"
     id="path27"
     style="stroke-width:4" />
  <path
     d="m 756,784 h 60 v 20 h -52 v 32 h 20 v 4 h 12 v 8 h 4 v 4 h 16 v 28 h -60 v -20 h -12 v -28 h 12 z"
     fill="#000000"
     id="path28"
     style="stroke-width:4" />
  <path
     d="m 488,1100 h 124 v 28 h -8 v 4 h -56 v 4 h -16 v -8 h -24 v 4 h -20 z"
     fill="#000000"
     id="path29"
     style="stroke-width:4" />
  <path
     d="m 524,1152 h 36 v 4 h 12 v 12 h -8 v 24 h 4 v 8 h 4 v 40 h -4 v 8 h -40 v -56 h 4 v -24 h -8 z"
     fill="#000000"
     id="path30"
     style="stroke-width:4" />
  <path
     d="m 320,680 h 36 v 4 h 4 v 4 h 24 v 44 h -80 v -44 h 4 v -4 h 12 z"
     fill="#262626"
     id="path31"
     style="stroke-width:4" />
  <path
     d="m 756,888 h 60 v 72 h -52 v -60 h -8 z"
     fill="#262626"
     id="path32"
     style="stroke-width:4" />
  <path
     d="m 76,416 h 88 v 40 H 76 Z"
     fill="#262626"
     id="path33"
     style="stroke-width:4" />
  <path
     d="m 328,468 h 60 v 44 h -84 v -32 h 24 z"
     fill="#262626"
     id="path34"
     style="stroke-width:4" />
  <path
     d="m 72,464 h 92 v 36 H 72 Z"
     fill="#262626"
     id="path35"
     style="stroke-width:4" />
  <path
     d="m 436,244 h 68 v 40 h -92 v -24 h 24 z"
     fill="#262626"
     id="path36"
     style="stroke-width:4" />
  <path
     d="m 436,508 h 4 v 4 h 28 v -4 h 8 v 88 h -28 v -12 h -4 v -4 h -8 z"
     fill="#262626"
     id="path37"
     style="stroke-width:4" />
  <path
     d="m 264,420 h 32 v 16 h 8 v 16 h -8 v 56 h -32 z"
     fill="#262626"
     id="path38"
     style="stroke-width:4" />
  <path
     d="m 300,328 h 100 v 28 h -68 v 12 h -12 v -12 h -20 z"
     fill="#262626"
     id="path39"
     style="stroke-width:4" />
  <path
     d="m 584,1152 h 28 v 108 h -28 v -68 h 4 v -24 h -4 z"
     fill="#000000"
     id="path40"
     style="stroke-width:4" />
  <path
     d="m 948,1012 h 36 v 80 h -36 z"
     fill="#262626"
     id="path41"
     style="stroke-width:4" />
  <path
     d="m 84,896 h 84 v 32 H 84 Z"
     fill="#262626"
     id="path42"
     style="stroke-width:4" />
  <path
     d="m 568,352 h 12 v 12 h 44 v 40 h -52 v -24 h -4 v 24 h -8 v -36 h 4 v -4 h 4 z"
     fill="#ffffff"
     id="path43"
     style="stroke-width:4" />
  <path
     d="m 652,992 h 16 v 8 h 28 v -4 h 16 v 48 h -52 v -32 h -8 z"
     fill="#ffffff"
     id="path44"
     style="stroke-width:4" />
  <path
     d="m 696,608 h 4 v 4 h 4 v 64 h 4 v 4 h 4 v 4 h 4 v 4 h 4 v 4 h 4 v 4 h 4 v 4 h 4 v 4 h 4 v 64 h 8 v 4 h -8 v 32 h -4 v 8 h -4 v 4 h -8 v -4 h 4 v -4 h 4 V 704 h -4 v -4 h -4 v -4 h -4 v -4 h -4 v -4 h -12 v 4 h -4 v 4 h -4 v 4 h -4 v 48 h -4 v 4 h -4 v -60 h -4 v -4 h -4 v -4 h 8 v -4 h 8 v -4 h 4 v -4 h 4 z"
     fill="#000000"
     id="path45"
     style="stroke-width:4" />
  <path
     d="m 704,700 h 4 v 4 h 4 v 4 h 4 v 4 h 4 v 88 h -4 v 4 h -8 v -20 h -4 v -8 h -4 v -4 h -20 v -4 h 4 v -4 h 4 v -4 h 4 v -4 h 4 v -48 h 4 v -4 h 4 z"
     fill="#000000"
     id="path46"
     style="stroke-width:4" />
  <path
     d="m 204,720 h 24 v 20 h 4 v 12 h 4 v 12 h -4 v 12 h -12 v 4 h 4 v 4 h 8 v 12 h 4 v 12 h -4 v 12 h -8 v 4 h -4 v 8 h -20 v -16 h 20 v -8 h 4 v -4 h 4 v -4 h -4 v -8 h -4 v -4 h -20 v -16 h 16 v -4 h 4 v -4 h 4 v -4 h 4 v -4 h -4 v -8 h -4 v -4 h -16 z"
     fill="#ffffff"
     id="path47"
     style="stroke-width:4" />
  <path
     d="m 540,904 h 20 v 8 h 28 v 20 h -28 v 24 h -20 v -24 h -28 v -12 h 20 v -8 h 4 v -4 h 4 z"
     fill="#000000"
     id="path48"
     style="stroke-width:4" />
  <path
     d="m 200,860 h 20 v 4 h 12 v 60 h -32 v -24 h 8 v -4 h -8 z"
     fill="#ffffff"
     id="path49"
     style="stroke-width:4" />
  <path
     d="m 240,228 h 116 v 60 H 240 Z m 4,8 v 48 h 104 v -48 z"
     fill="#ffffff"
     id="path50"
     style="stroke-width:4" />
  <path
     d="m 916,928 h 68 v 28 h -68 z"
     fill="#262626"
     id="path51"
     style="stroke-width:4" />
  <path
     d="m 808,1100 h 36 v 20 h 12 v 16 h -48 z"
     fill="#262626"
     id="path52"
     style="stroke-width:4" />
  <path
     d="m 164,612 h 4 v 24 h 8 v 16 h -8 v 4 h -8 v -4 h -16 v 100 h -4 v 4 h -16 v -4 h 4 v -4 h 4 v -4 h 4 V 644 h 28 z"
     fill="#ffffff"
     id="path53"
     style="stroke-width:4" />
  <path
     d="m 836,988 h 24 v 24 h -4 v 12 h 4 v 20 h -24 z"
     fill="#ffffff"
     id="path54"
     style="stroke-width:4" />
  <path
     d="m 672,608 h 8 v 4 h 4 v 4 h 4 v 48 h -4 v 4 h -12 v -4 h -4 v -4 h -4 v -44 h 4 v -4 h 4 z"
     fill="#000000"
     id="path55"
     style="stroke-width:4" />
  <path
     d="m 204,592 h 32 v 40 h -32 z"
     fill="#ffffff"
     id="path56"
     style="stroke-width:4" />
  <path
     d="m 860,832 h 32 v 36 h -32 v -8 h -4 v -4 h 4 z"
     fill="#262626"
     id="path57"
     style="stroke-width:4" />
  <path
     d="m 668,1008 h 40 v 28 h -40 z"
     fill="#262626"
     id="path58"
     style="stroke-width:4" />
  <path
     d="m 200,492 h 24 v 48 h -24 v -20 h 4 v -8 h -4 z"
     fill="#ffffff"
     id="path59"
     style="stroke-width:4" />
  <path
     d="m 544,424 h 8 v 40 h 24 v -28 h 8 v 28 h 20 v 4 h -72 v 8 h 8 v 4 h -20 v -16 h 24 z"
     fill="#ffffff"
     id="path60"
     style="stroke-width:4" />
  <path
     d="m 292,1040 h 4 v 92 h -4 v -12 h -8 v -16 h -4 v -20 h 4 v -20 h 8 z"
     fill="#ffffff"
     id="path61"
     style="stroke-width:4" />
  <path
     d="m 480,924 h 20 v 16 h 20 v 20 h -8 v -8 h -32 z"
     fill="#262626"
     id="path62"
     style="stroke-width:4" />
  <path
     d="m 768,808 h 40 v 20 h -40 z"
     fill="#262626"
     id="path63"
     style="stroke-width:4" />
  <path
     d="m 420,452 h 44 v 16 h -12 v 4 h -24 v -4 h -8 z"
     fill="#ffffff"
     id="path64"
     style="stroke-width:4" />
  <path
     d="m 580,608 h 24 v 32 h -24 z"
     fill="#000000"
     id="path65"
     style="stroke-width:4" />
  <path
     d="m 420,364 h 44 v 12 h -12 v 8 h -24 v -4 h -8 z"
     fill="#ffffff"
     id="path66"
     style="stroke-width:4" />
  <path
     d="m 520,720 h 16 v 4 h 8 v 16 h -8 v 12 h -16 z"
     fill="#ffffff"
     id="path67"
     style="stroke-width:4" />
  <path
     d="m 292,944 h 20 v 24 h -28 v -16 h 8 z"
     fill="#ffffff"
     id="path68"
     style="stroke-width:4" />
  <path
     d="m 292,900 h 16 v 28 h -16 z"
     fill="#ffffff"
     id="path69"
     style="stroke-width:4" />
  <path
     d="m 200,1084 h 20 v 20 h -20 z"
     fill="#ffffff"
     id="path70"
     style="stroke-width:4" />
  <path
     d="m 784,992 h 20 v 20 h -20 z"
     fill="#ffffff"
     id="path71"
     style="stroke-width:4" />
  <path
     d="m 740,992 h 20 v 20 h -20 z"
     fill="#ffffff"
     id="path72"
     style="stroke-width:4" />
  <path
     d="m 292,632 h 16 v 24 h -16 z"
     fill="#e9e9e9"
     id="path73"
     style="stroke-width:4" />
  <path
     d="m 292,584 h 16 v 24 h -16 z"
     fill="#dfdfdf"
     id="path74"
     style="stroke-width:4" />
  <path
     d="m 292,540 h 16 v 24 h -16 z"
     fill="#e9e9e9"
     id="path75"
     style="stroke-width:4" />
  <path
     d="m 680,784 h 8 v 4 h 8 v 12 h -4 v 4 h -12 v -4 h -4 v -4 h -4 v -4 h 4 v -4 h 4 z"
     fill="#000000"
     id="path76"
     style="stroke-width:4" />
  <path
     d="m 248,1084 h 16 v 20 h -16 z"
     fill="#ffffff"
     id="path77"
     style="stroke-width:4" />
  <path
     d="m 156,1084 h 16 v 20 h -16 z"
     fill="#ffffff"
     id="path78"
     style="stroke-width:4" />
  <path
     d="m 244,996 h 20 v 16 h -20 z"
     fill="#ffffff"
     id="path79"
     style="stroke-width:4" />
  <path
     d="m 200,996 h 20 v 16 h -20 z"
     fill="#ffffff"
     id="path80"
     style="stroke-width:4" />
  <path
     d="m 336,952 h 20 v 16 h -20 z"
     fill="#ffffff"
     id="path81"
     style="stroke-width:4" />
  <path
     d="m 244,952 h 20 v 16 h -20 z"
     fill="#ffffff"
     id="path82"
     style="stroke-width:4" />
  <path
     d="m 200,952 h 20 v 16 h -20 z"
     fill="#ffffff"
     id="path83"
     style="stroke-width:4" />
  <path
     d="m 156,724 h 16 v 20 h -16 z"
     fill="#ffffff"
     id="path84"
     style="stroke-width:4" />
  <path
     d="m 204,680 h 16 v 20 h -16 z"
     fill="#ffffff"
     id="path85"
     style="stroke-width:4" />
  <path
     d="m 204,564 h 16 v 20 h -16 z"
     fill="#ffffff"
     id="path86"
     style="stroke-width:4" />
  <path
     d="m 200,452 h 20 v 16 h -20 z"
     fill="#ffffff"
     id="path87"
     style="stroke-width:4" />
  <path
     d="m 492,380 h 24 v 12 h -24 z"
     fill="#000000"
     id="path88"
     style="stroke-width:4" />
  <path
     d="m 384,952 h 16 v 16 h -16 z"
     fill="#ffffff"
     id="path89"
     style="stroke-width:4" />
  <path
     d="m 156,860 h 16 v 16 h -16 z"
     fill="#ffffff"
     id="path90"
     style="stroke-width:4" />
  <path
     d="m 156,816 h 16 v 16 h -16 z"
     fill="#ffffff"
     id="path91"
     style="stroke-width:4" />
  <path
     d="m 156,772 h 16 v 16 h -16 z"
     fill="#ffffff"
     id="path92"
     style="stroke-width:4" />
  <path
     d="m 156,680 h 16 v 16 h -16 z"
     fill="#ffffff"
     id="path93"
     style="stroke-width:4" />
  <path
     d="m 204,636 h 16 v 16 h -16 z"
     fill="#ffffff"
     id="path94"
     style="stroke-width:4" />
  <path
     d="m 676,816 h 24 v 4 h -4 v 4 h -4 v 4 h -12 v -8 h -4 z"
     fill="#000000"
     id="path95"
     style="stroke-width:4" />
  <path
     d="m 552,604 h 12 v 16 h -12 z"
     fill="#000000"
     id="path96"
     style="stroke-width:4" />
  <path
     d="m 600,380 h 12 v 12 h -12 z"
     fill="#000000"
     id="path97"
     style="stroke-width:4" />
</svg>
